<svg xmlns="http://www.w3.org/2000/svg" width="920" height="420" viewBox="0 0 920 420">
  <rect width="920" height="420" fill="#f8fafc"/>
  <rect x="60" y="60" width="800" height="280" rx="18" fill="#ffffff" stroke="#e2e8f0" stroke-width="2"/>
  <rect x="60" y="60" width="800" height="46" rx="18" fill="#f1f5f9"/>
  <circle cx="90" cy="83" r="8" fill="#f87171"/>
  <circle cx="115" cy="83" r="8" fill="#facc15"/>
  <circle cx="140" cy="83" r="8" fill="#4ade80"/>
  <rect x="180" y="74" width="460" height="18" rx="9" fill="#e2e8f0"/>

  <rect x="700" y="68" width="28" height="28" rx="6" fill="#e11d48"/>
  <path d="M708 74h12v12h-12z" fill="#ffffff"/>
  <path d="M720 78h6v6h-6z" fill="#ffffff"/>

  <rect x="650" y="110" width="180" height="150" rx="12" fill="#0f172a"/>
  <rect x="665" y="126" width="150" height="12" rx="6" fill="#334155"/>
  <rect x="670" y="150" width="140" height="70" rx="10" fill="#1e293b"/>
  <rect x="682" y="168" width="28" height="28" rx="6" fill="#e11d48"/>
  <circle cx="785" cy="184" r="10" fill="#94a3b8"/>
  <rect x="778" y="176" width="14" height="8" rx="4" fill="#0f172a"/>
  <rect x="782" y="182" width="6" height="14" rx="3" fill="#0f172a"/>

  <circle cx="740" cy="160" r="18" fill="#facc15"/>
  <text x="740" y="166" font-family="Arial, Helvetica, sans-serif" font-size="14" font-weight="700" text-anchor="middle" fill="#0f172a">1</text>
  <circle cx="806" cy="224" r="18" fill="#facc15"/>
  <text x="806" y="230" font-family="Arial, Helvetica, sans-serif" font-size="14" font-weight="700" text-anchor="middle" fill="#0f172a">2</text>

  <path d="M744 178c-6 18 6 30 24 36" fill="none" stroke="#facc15" stroke-width="4" stroke-linecap="round"/>
  <path d="M802 210c-10 0-18 6-22 14" fill="none" stroke="#facc15" stroke-width="4" stroke-linecap="round"/>
</svg>
