<svg xmlns="http://www.w3.org/2000/svg" width="1024" height="683" viewBox="0 0 1024 683">
  <rect width="1024" height="683" fill="#e5e7eb"/>

  <rect x="22" y="40" width="980" height="595" rx="12" fill="#ffffff" stroke="#d1d5db"/>
  <rect x="22" y="40" width="980" height="42" rx="12" fill="#c7d4ed"/>
  <rect x="34" y="52" width="150" height="30" rx="8" fill="#e5e7eb"/>
  <text x="165" y="72" font-family="Arial, Helvetica, sans-serif" font-size="28" fill="#6b7280">×</text>
  <rect x="192" y="40" width="320" height="42" rx="14" fill="#bfd0ee"/>
  <text x="205" y="70" font-family="Arial, Helvetica, sans-serif" font-size="34" fill="#475569">+</text>

  <circle cx="20" cy="107" r="7" fill="#4b5563"/>
  <rect x="48" y="86" width="902" height="37" rx="18.5" fill="#e6e9f3"/>

  <rect x="942" y="52" width="24" height="24" rx="12" fill="#d1d5db"/>
  <path d="M952 60l6 0 -3 5z" fill="#6b7280"/>

  <rect x="820" y="89" width="32" height="32" rx="8" fill="#ef4444"/>
  <path d="M827 98h18v14h-18z" fill="#ffffff"/>
  <path d="M848 98h6v14h-6z" fill="#ffffff"/>
  <rect x="862" y="90" width="16" height="30" rx="4" fill="#d1d5db"/>
  <path d="M887 95l12 0 0 20 -12 0z" fill="#6b7280"/>
  <rect x="910" y="90" width="2" height="30" fill="#d1d5db"/>
  <rect x="930" y="92" width="16" height="24" rx="4" fill="#9ca3af"/>

  <text x="865" y="176" font-family="Arial, Helvetica, sans-serif" font-size="30" fill="#374151">Gmail</text>
  <text x="958" y="176" font-family="Arial, Helvetica, sans-serif" font-size="30" fill="#374151">Images</text>
  <rect x="999" y="162" width="18" height="18" rx="3" fill="#6b7280"/>

  <text x="343" y="394" font-family="Arial, Helvetica, sans-serif" font-size="104" font-weight="700" fill="#4285f4">G</text>
  <text x="417" y="394" font-family="Arial, Helvetica, sans-serif" font-size="104" font-weight="700" fill="#ea4335">o</text>
  <text x="476" y="394" font-family="Arial, Helvetica, sans-serif" font-size="104" font-weight="700" fill="#fbbc05">o</text>
  <text x="535" y="394" font-family="Arial, Helvetica, sans-serif" font-size="104" font-weight="700" fill="#4285f4">g</text>
  <text x="592" y="394" font-family="Arial, Helvetica, sans-serif" font-size="104" font-weight="700" fill="#34a853">l</text>
  <text x="616" y="394" font-family="Arial, Helvetica, sans-serif" font-size="104" font-weight="700" fill="#ea4335">e</text>

  <rect x="210" y="493" width="603" height="52" rx="26" fill="#ffffff" stroke="#e5e7eb"/>
  <circle cx="497" cy="593" r="26" fill="#cad8ef"/>
  <text x="485" y="607" font-family="Arial, Helvetica, sans-serif" font-size="44" fill="#475569">+</text>

  <g fill="none" stroke="#ef4444" stroke-width="4" stroke-linecap="round" stroke-linejoin="round">
    <path d="M806 104c18 12 37 16 60 13"/>
    <path d="M864 112l21 0 -12 14"/>
  </g>

  <g>
    <circle cx="754" cy="90" r="44" fill="#f9fafb" stroke="#ef4444" stroke-width="4"/>
    <circle cx="754" cy="90" r="34" fill="#f9fafb" stroke="#ef4444" stroke-width="4"/>
    <text x="743" y="105" font-family="Arial, Helvetica, sans-serif" font-size="46" font-weight="700" fill="#374151">3</text>
  </g>
</svg>
