<svg xmlns="http://www.w3.org/2000/svg" width="920" height="420" viewBox="0 0 920 420">
  <rect width="920" height="420" fill="#f8fafc"/>
  <rect x="60" y="60" width="800" height="280" rx="18" fill="#ffffff" stroke="#e2e8f0" stroke-width="2"/>
  <rect x="60" y="60" width="800" height="46" rx="18" fill="#f1f5f9"/>
  <circle cx="90" cy="83" r="8" fill="#f87171"/>
  <circle cx="115" cy="83" r="8" fill="#facc15"/>
  <circle cx="140" cy="83" r="8" fill="#4ade80"/>
  <rect x="180" y="74" width="460" height="18" rx="9" fill="#e2e8f0"/>

  <rect x="560" y="120" width="250" height="190" rx="16" fill="#ffffff" stroke="#e2e8f0" stroke-width="2"/>
  <rect x="580" y="150" width="120" height="20" rx="10" fill="#e11d48"/>
  <rect x="580" y="180" width="200" height="36" rx="10" fill="#f1f5f9" stroke="#cbd5f5" stroke-width="2"/>
  <rect x="580" y="230" width="80" height="18" rx="9" fill="#e2e8f0"/>

  <rect x="200" y="160" width="260" height="160" rx="12" fill="#e2e8f0"/>
  <rect x="230" y="190" width="200" height="20" rx="10" fill="#94a3b8"/>
  <rect x="230" y="220" width="160" height="14" rx="7" fill="#cbd5f5"/>
  <rect x="230" y="245" width="180" height="14" rx="7" fill="#cbd5f5"/>

  <circle cx="720" cy="170" r="18" fill="#facc15"/>
  <text x="720" y="176" font-family="Arial, Helvetica, sans-serif" font-size="14" font-weight="700" text-anchor="middle" fill="#0f172a">1</text>
  <circle cx="680" cy="205" r="18" fill="#facc15"/>
  <text x="680" y="211" font-family="Arial, Helvetica, sans-serif" font-size="14" font-weight="700" text-anchor="middle" fill="#0f172a">2</text>

  <path d="M700 170c-18 2-34 12-44 28" fill="none" stroke="#facc15" stroke-width="4" stroke-linecap="round"/>
</svg>
