<svg xmlns="http://www.w3.org/2000/svg" width="1024" height="683" viewBox="0 0 1024 683">
  <defs>
    <filter id="shadow" x="-20%" y="-20%" width="140%" height="140%">
      <feDropShadow dx="0" dy="6" stdDeviation="8" flood-color="#9ca3af" flood-opacity="0.28"/>
    </filter>
  </defs>

  <rect width="1024" height="683" fill="#e5e7eb"/>

  <rect x="22" y="40" width="980" height="595" rx="12" fill="#ffffff" stroke="#d1d5db"/>
  <rect x="22" y="40" width="980" height="42" rx="12" fill="#c7d4ed"/>
  <rect x="34" y="52" width="150" height="30" rx="8" fill="#e5e7eb"/>
  <text x="165" y="72" font-family="Arial, Helvetica, sans-serif" font-size="28" fill="#6b7280">×</text>
  <rect x="192" y="40" width="320" height="42" rx="14" fill="#bfd0ee"/>
  <text x="205" y="70" font-family="Arial, Helvetica, sans-serif" font-size="34" fill="#475569">+</text>

  <circle cx="20" cy="107" r="7" fill="#4b5563"/>
  <rect x="48" y="86" width="902" height="37" rx="18.5" fill="#e6e9f3"/>

  <rect x="860" y="88" width="38" height="34" rx="15" fill="#d1d5db"/>
  <path d="M877 96l4 0 0 5 4 0 0 4 -4 0 0 5 -4 0 0 -5 -4 0 0 -4 4 0z" fill="#475569"/>
  <rect x="906" y="90" width="6" height="30" rx="3" fill="#d1d5db"/>
  <rect x="922" y="93" width="16" height="23" rx="4" fill="#9ca3af"/>
  <circle cx="960" cy="103" r="13" fill="#93c5fd"/>

  <text x="343" y="394" font-family="Arial, Helvetica, sans-serif" font-size="104" font-weight="700" fill="#4285f4">G</text>
  <text x="417" y="394" font-family="Arial, Helvetica, sans-serif" font-size="104" font-weight="700" fill="#ea4335">o</text>
  <text x="476" y="394" font-family="Arial, Helvetica, sans-serif" font-size="104" font-weight="700" fill="#fbbc05">o</text>
  <text x="535" y="394" font-family="Arial, Helvetica, sans-serif" font-size="104" font-weight="700" fill="#4285f4">g</text>
  <text x="592" y="394" font-family="Arial, Helvetica, sans-serif" font-size="104" font-weight="700" fill="#34a853">l</text>
  <text x="616" y="394" font-family="Arial, Helvetica, sans-serif" font-size="104" font-weight="700" fill="#ea4335">e</text>

  <rect x="210" y="493" width="603" height="52" rx="26" fill="#ffffff" stroke="#e5e7eb" filter="url(#shadow)"/>
  <circle cx="497" cy="593" r="26" fill="#cad8ef"/>
  <text x="485" y="607" font-family="Arial, Helvetica, sans-serif" font-size="44" fill="#475569">+</text>

  <g filter="url(#shadow)">
    <rect x="588" y="126" width="352" height="284" rx="16" fill="#ffffff" stroke="#d1d5db"/>
    <text x="610" y="171" font-family="Arial, Helvetica, sans-serif" font-size="34" font-weight="700" fill="#1f2937">Extensions</text>
    <text x="925" y="171" font-family="Arial, Helvetica, sans-serif" font-size="30" fill="#6b7280">×</text>
    <text x="610" y="214" font-family="Arial, Helvetica, sans-serif" font-size="29" font-weight="700" fill="#111827">No access needed</text>
    <text x="610" y="245" font-family="Arial, Helvetica, sans-serif" font-size="26" fill="#374151">These extensions don’t need to see and change</text>
    <text x="610" y="274" font-family="Arial, Helvetica, sans-serif" font-size="26" fill="#374151">information on this site.</text>

    <rect x="610" y="304" width="308" height="72" rx="10" fill="#f3f4f6" stroke="#e5e7eb"/>
    <rect x="627" y="320" width="41" height="40" rx="6" fill="#ef4444"/>
    <text x="677" y="348" font-family="Arial, Helvetica, sans-serif" font-size="34" fill="#1f2937">PDF Text to Speech</text>
    <rect x="860" y="315" width="54" height="49" rx="10" fill="#f9fafb" stroke="#e5e7eb"/>
    <path d="M887 329l0 20m-7 0h14m-10 -20l3 -6 3 6" stroke="#6b7280" stroke-width="2.5" fill="none" stroke-linecap="round" stroke-linejoin="round"/>

    <rect x="610" y="376" width="330" height="34" rx="0" fill="#f3f4f6" stroke="#e5e7eb"/>
    <text x="646" y="400" font-family="Arial, Helvetica, sans-serif" font-size="30" fill="#374151">Manage Extensions</text>
  </g>

  <g fill="none" stroke="#ef4444" stroke-width="4" stroke-linecap="round" stroke-linejoin="round">
    <path d="M808 104c16 16 38 22 61 21"/>
    <path d="M865 120l20 4 -16 13"/>
    <path d="M949 340c15 -1 28 3 36 12"/>
    <path d="M982 349l14 14 -20 3"/>
  </g>

  <g>
    <circle cx="754" cy="90" r="44" fill="#f9fafb" stroke="#ef4444" stroke-width="4"/>
    <circle cx="754" cy="90" r="34" fill="#f9fafb" stroke="#ef4444" stroke-width="4"/>
    <text x="743" y="105" font-family="Arial, Helvetica, sans-serif" font-size="46" font-weight="700" fill="#374151">1</text>
  </g>

  <g>
    <circle cx="949" cy="357" r="44" fill="#f9fafb" stroke="#ef4444" stroke-width="4"/>
    <circle cx="949" cy="357" r="34" fill="#f9fafb" stroke="#ef4444" stroke-width="4"/>
    <text x="938" y="372" font-family="Arial, Helvetica, sans-serif" font-size="46" font-weight="700" fill="#374151">2</text>
  </g>
</svg>
